<mxfile host="app.diagrams.net" modified="2021-05-25T15:53:36.690Z" agent="5.0 (Windows NT 10.0; Win64; x64) AppleWebKit/537.36 (KHTML, like Gecko) Chrome/90.0.4430.212 Safari/537.36" etag="zW5GKneEWeEvHJ_U3saz" version="14.7.1" type="github">
  <diagram id="RC3RRxhq_nwI5Id9wfM9" name="Page-1">
    <mxGraphModel dx="1422" dy="775" grid="1" gridSize="10" guides="1" tooltips="1" connect="1" arrows="1" fold="1" page="1" pageScale="1" pageWidth="850" pageHeight="1100" math="0" shadow="0">
      <root>
        <mxCell id="0" />
        <mxCell id="1" parent="0" />
        <mxCell id="S7mq50EWiLmXrekJxZVi-1" value="Axon Node" style="rounded=1;whiteSpace=wrap;html=1;" vertex="1" parent="1">
          <mxGeometry x="120" y="70" width="190" height="80" as="geometry" />
        </mxCell>
        <mxCell id="S7mq50EWiLmXrekJxZVi-2" value="1. Single Node" style="text;html=1;strokeColor=none;fillColor=none;align=center;verticalAlign=middle;whiteSpace=wrap;rounded=0;" vertex="1" parent="1">
          <mxGeometry x="40" y="30" width="90" height="20" as="geometry" />
        </mxCell>
        <mxCell id="S7mq50EWiLmXrekJxZVi-3" value="Axon Node" style="rounded=1;whiteSpace=wrap;html=1;" vertex="1" parent="1">
          <mxGeometry x="120" y="290" width="190" height="80" as="geometry" />
        </mxCell>
        <mxCell id="S7mq50EWiLmXrekJxZVi-4" value="2. Axon Node + Externalized PostgreSQL" style="text;html=1;strokeColor=none;fillColor=none;align=center;verticalAlign=middle;whiteSpace=wrap;rounded=0;" vertex="1" parent="1">
          <mxGeometry x="30" y="240" width="190" height="20" as="geometry" />
        </mxCell>
        <mxCell id="S7mq50EWiLmXrekJxZVi-5" value="Axon Node" style="rounded=1;whiteSpace=wrap;html=1;" vertex="1" parent="1">
          <mxGeometry x="120" y="490" width="190" height="80" as="geometry" />
        </mxCell>
        <mxCell id="S7mq50EWiLmXrekJxZVi-6" value="3. Axon Node + OrientDB Cluster" style="text;html=1;strokeColor=none;fillColor=none;align=center;verticalAlign=middle;whiteSpace=wrap;rounded=0;" vertex="1" parent="1">
          <mxGeometry x="50" y="450" width="190" height="20" as="geometry" />
        </mxCell>
        <mxCell id="S7mq50EWiLmXrekJxZVi-7" value="Axon Node" style="rounded=1;whiteSpace=wrap;html=1;" vertex="1" parent="1">
          <mxGeometry x="120" y="770" width="190" height="80" as="geometry" />
        </mxCell>
        <mxCell id="S7mq50EWiLmXrekJxZVi-8" value="4. Axon Node + Externalized PostgreSQL + OrientDB Cluster" style="text;html=1;strokeColor=none;fillColor=none;align=center;verticalAlign=middle;whiteSpace=wrap;rounded=0;" vertex="1" parent="1">
          <mxGeometry x="60" y="720" width="250" height="20" as="geometry" />
        </mxCell>
        <mxCell id="S7mq50EWiLmXrekJxZVi-11" value="" style="endArrow=classic;startArrow=classic;html=1;exitX=1;exitY=0.5;exitDx=0;exitDy=0;entryX=0;entryY=0.5;entryDx=0;entryDy=0;entryPerimeter=0;" edge="1" parent="1" source="S7mq50EWiLmXrekJxZVi-3" target="S7mq50EWiLmXrekJxZVi-13">
          <mxGeometry width="50" height="50" relative="1" as="geometry">
            <mxPoint x="400" y="420" as="sourcePoint" />
            <mxPoint x="450" y="370" as="targetPoint" />
          </mxGeometry>
        </mxCell>
        <mxCell id="S7mq50EWiLmXrekJxZVi-13" value="PostgreSQL" style="shape=cylinder3;whiteSpace=wrap;html=1;boundedLbl=1;backgroundOutline=1;size=15;" vertex="1" parent="1">
          <mxGeometry x="540" y="285" width="90" height="90" as="geometry" />
        </mxCell>
        <mxCell id="S7mq50EWiLmXrekJxZVi-15" value="" style="endArrow=classic;startArrow=classic;html=1;exitX=1;exitY=0.5;exitDx=0;exitDy=0;entryX=0;entryY=0.5;entryDx=0;entryDy=0;" edge="1" parent="1" source="S7mq50EWiLmXrekJxZVi-5" target="S7mq50EWiLmXrekJxZVi-23">
          <mxGeometry width="50" height="50" relative="1" as="geometry">
            <mxPoint x="360" y="370" as="sourcePoint" />
            <mxPoint x="550" y="528.9000000000001" as="targetPoint" />
          </mxGeometry>
        </mxCell>
        <mxCell id="S7mq50EWiLmXrekJxZVi-19" value="" style="endArrow=classic;startArrow=classic;html=1;exitX=0.979;exitY=0.625;exitDx=0;exitDy=0;entryX=0;entryY=0.5;entryDx=0;entryDy=0;entryPerimeter=0;exitPerimeter=0;" edge="1" parent="1" source="S7mq50EWiLmXrekJxZVi-7">
          <mxGeometry width="50" height="50" relative="1" as="geometry">
            <mxPoint x="320" y="600" as="sourcePoint" />
            <mxPoint x="530" y="820" as="targetPoint" />
          </mxGeometry>
        </mxCell>
        <mxCell id="S7mq50EWiLmXrekJxZVi-20" value="" style="endArrow=classic;startArrow=classic;html=1;entryX=0;entryY=0.5;entryDx=0;entryDy=0;entryPerimeter=0;exitX=0.468;exitY=0.975;exitDx=0;exitDy=0;exitPerimeter=0;" edge="1" parent="1" target="S7mq50EWiLmXrekJxZVi-21" source="S7mq50EWiLmXrekJxZVi-7">
          <mxGeometry width="50" height="50" relative="1" as="geometry">
            <mxPoint x="220" y="955" as="sourcePoint" />
            <mxPoint x="440" y="995" as="targetPoint" />
            <Array as="points">
              <mxPoint x="209" y="955" />
            </Array>
          </mxGeometry>
        </mxCell>
        <mxCell id="S7mq50EWiLmXrekJxZVi-21" value="PostgreSQL" style="shape=cylinder3;whiteSpace=wrap;html=1;boundedLbl=1;backgroundOutline=1;size=15;" vertex="1" parent="1">
          <mxGeometry x="530" y="910" width="90" height="90" as="geometry" />
        </mxCell>
        <mxCell id="S7mq50EWiLmXrekJxZVi-23" value="" style="rounded=1;whiteSpace=wrap;html=1;" vertex="1" parent="1">
          <mxGeometry x="550" y="500" width="120" height="60" as="geometry" />
        </mxCell>
        <mxCell id="S7mq50EWiLmXrekJxZVi-24" value="" style="rounded=1;whiteSpace=wrap;html=1;" vertex="1" parent="1">
          <mxGeometry x="560" y="510" width="120" height="60" as="geometry" />
        </mxCell>
        <mxCell id="S7mq50EWiLmXrekJxZVi-25" value="OrientDB Cluster" style="rounded=1;whiteSpace=wrap;html=1;" vertex="1" parent="1">
          <mxGeometry x="570" y="520" width="120" height="60" as="geometry" />
        </mxCell>
        <mxCell id="S7mq50EWiLmXrekJxZVi-26" value="" style="rounded=1;whiteSpace=wrap;html=1;" vertex="1" parent="1">
          <mxGeometry x="530" y="790" width="120" height="60" as="geometry" />
        </mxCell>
        <mxCell id="S7mq50EWiLmXrekJxZVi-27" value="" style="rounded=1;whiteSpace=wrap;html=1;" vertex="1" parent="1">
          <mxGeometry x="540" y="800" width="120" height="60" as="geometry" />
        </mxCell>
        <mxCell id="S7mq50EWiLmXrekJxZVi-28" value="OrientDB Cluster" style="rounded=1;whiteSpace=wrap;html=1;" vertex="1" parent="1">
          <mxGeometry x="550" y="810" width="120" height="60" as="geometry" />
        </mxCell>
      </root>
    </mxGraphModel>
  </diagram>
</mxfile>
